<svg id="logo-white" xmlns="http://www.w3.org/2000/svg" width="62.739" height="109.306" viewBox="0 0 62.739 109.306">
  <path id="Path_736" data-name="Path 736" d="M31.378,109.306C14.89,109.306,0,85.9,0,54.662S14.89,0,31.378,0,62.739,23.406,62.739,54.662s-14.873,54.644-31.361,54.644M61.457,54.662c0-31.2-14.82-53.362-30.079-53.362s-30.1,22.16-30.1,53.362,14.837,53.362,30.1,53.362S61.457,85.847,61.457,54.662" fill="#fff"/>
  <path id="Path_737" data-name="Path 737" d="M30.282,105.689c-15.224,0-28.832-22.405-28.832-52.115S15.058,1.44,30.282,1.44,59.114,23.845,59.114,53.573s-13.608,52.115-28.832,52.115m27.55-52.115c0-29.728-13.591-50.834-27.55-50.834S2.732,23.81,2.732,53.661s13.573,50.921,27.55,50.921,27.55-21.071,27.55-50.834" transform="translate(1.096 1.088)" fill="#fff"/>
  <path id="Path_738" data-name="Path 738" d="M51.82,46.893v1.018A52.22,52.22,0,0,1,38.808,55.9c2.809.386,5.689.7,8.622.9l-5.847,6.672A102.9,102.9,0,0,1,28.009,60.08c-4.53,1.457-13.591,3.389-13.591,3.389l-5.812-6.6s5.83-.509,8.639-.9A52.888,52.888,0,0,1,4.41,48.052V46.963a160.9,160.9,0,0,0,23.635,7.024A159.384,159.384,0,0,0,51.82,46.84" transform="translate(3.334 35.406)" fill="#fff"/>
  <path id="Path_739" data-name="Path 739" d="M28.188,49.348c9.921,0,13.643-3.248,16.242-6.918a19.877,19.877,0,0,0,7.726,6.585v1.44H4.22V49.1a19.859,19.859,0,0,0,7.6-6.585c2.616,3.67,6.444,6.9,16.365,6.918" transform="translate(3.189 32.072)" fill="#fff"/>
  <path id="Path_740" data-name="Path 740" d="M39.484,35.647V37.1h1.422V35.647h2.212V37.1h1.4v-1.44h2.212v7.269H44.47V58.457a33.365,33.365,0,0,1-2.3-3.073l-.966,1.51a15.8,15.8,0,0,1-1.756,2.16V42.917H37.271V35.665Zm-28.937,0H12.3V58.79A31.605,31.605,0,0,1,9.51,55.384a31.452,31.452,0,0,1-2.3,3.09V35.647H8.966a55.013,55.013,0,0,0-1.054-5.707,9.341,9.341,0,0,1,2.441-7.621c-1.528,1.9-.439,5.443.509,7.6a7.48,7.48,0,0,1-.3,5.707m18.244,0v1.457H30.23V35.63h2.212v1.457h1.4v-1.44H36.06v7.269H33.777V62.232a23.285,23.285,0,0,1-5.075.878V42.917H26.578V35.665Zm-3.424,2.406V42.9H22.644s-.386-1.756-1.9-1.756S18.641,42.9,18.641,42.9v3.512h6.374v6.953H22.732a2,2,0,0,0-1.844-1.756,2.195,2.195,0,0,0-2.107,1.756v3.67h6.374v6.3c-5.268,0-8.569-.913-11.5-3.354V35.665h2.212v1.457h1.422V35.665H19.5v1.457h1.387v-1.44h2.23V37.14H24.4V35.682h.913Z" transform="translate(5.449 16.871)" fill="#fff"/>
  <path id="Path_741" data-name="Path 741" d="M16.523,60.321h-.9v-2.9l-.808.72V57.2l.808-.72h.9Zm3.6-1.141a1.124,1.124,0,0,1-.369.9,1.4,1.4,0,0,1-.931.3,1.352,1.352,0,0,1-.913-.3,1.124,1.124,0,0,1-.369-.9,1.018,1.018,0,0,1,.439-.825,1,1,0,0,1-.4-.773,1.054,1.054,0,0,1,.369-.843,1.37,1.37,0,0,1,.878-.3,1.335,1.335,0,0,1,.878.3,1.018,1.018,0,0,1,.386.843,1,1,0,0,1-.4.773,1.018,1.018,0,0,1,.439.825m-.931-1.563a.369.369,0,0,0-.369-.369.386.386,0,0,0-.176.176.378.378,0,0,0,.263.632.369.369,0,0,0,.369-.369m0,1.545a.4.4,0,0,0-.105-.281.386.386,0,0,0-.3-.123.369.369,0,0,0-.281.123.386.386,0,0,0,0,.562.369.369,0,0,0,.281.123.386.386,0,0,0,.3-.123.4.4,0,0,0,.105-.281M23.2,57.353,22,60.409h-.966l1.124-3.143h-.825v.6h-.843v-1.4h2.634Zm2.388,3.055h-.9V57.424l-.825.72V57.2l.825-.72h.9Z" transform="translate(11.203 42.662)" fill="#fff"/>
  <path id="Path_742" data-name="Path 742" d="M16.563,32.644v-.983H15.6v.966h-.983v-.966h-.966v.966h-.983v-.966h-.983v.966A11.642,11.642,0,0,0,22.8,44.268V39.4a6.8,6.8,0,0,1-6.233-6.76m17.559-.983H35.1v.966A11.642,11.642,0,0,1,23.99,44.268V39.4a6.8,6.8,0,0,0,6.233-6.76v-.983h.966v.966h.983v-.966h.966v.966h.983ZM17.757,27.183H11.769a3.055,3.055,0,0,1,5.935,0m7.234,6.356-1.545,2.669L21.83,33.557Zm0,0-1.545-2.687h3.09Zm7.111-8.692a3.055,3.055,0,0,1,2.967,2.335H29.082a3.073,3.073,0,0,1,2.967-2.335m-2.967,7.866h0v-8.78l.808-.808v-.773h-.808V19.071l-.808-4.881-.825,4.881v3.284H25.834V19.071l.808-.808v-.808h-.808V14.1L25.026,9.22,24.2,14.1v3.284H22.585V14.1L21.83,9.29,20.952,14.1v3.284h-.878v.808l.808.808v3.354H19.249V19.071l-.808-4.881-.808,4.881v3.284h-.808v.808l.808.808v8.674a5.689,5.689,0,0,0,11.378.088m-3.248-8.78.808-.808.808.808v4.723a5.268,5.268,0,0,0-1.615-1.159Zm-3.248-4.9.808-.808.808.808v3.3H22.515Zm0,4.9.808-.808.808.808v3.055a4.689,4.689,0,0,0-1.615,0Zm-3.266,0,.825-.808.808.808v3.512a5.637,5.637,0,0,0-1.633,1.159Zm4.074,12.291H20.3l1.528-2.687H18.757L20.3,30.87l1.528,2.687,1.545-2.687H20.3l1.528-2.722,1.545,2.669,1.563-2.669,1.545,2.669L28.029,33.5h-3.09l1.545,2.669Zm-5.689-5.356H10.61a3.635,3.635,0,0,1,7.024,0m14.978-2.739a3.617,3.617,0,0,1,3.512,2.757H29.1a3.635,3.635,0,0,1,3.512-2.757" transform="translate(8.02 6.969)" fill="#fff"/>
</svg>
